<svg width="960" height="360" viewBox="0 0 960 360" xmlns="http://www.w3.org/2000/svg" role="img" aria-label="SynQc how it works">
  <style>
    .node { fill: #0c1a33; stroke: #3ad5ff; stroke-width: 2; rx: 14; }
    .label { fill: #e8f7ff; font-family: 'Segoe UI', sans-serif; font-size: 18px; font-weight: 700; text-anchor: middle; }
    .sub { fill: #9ddcff; font-family: 'Segoe UI', sans-serif; font-size: 13px; text-anchor: middle; }
    .arrow { stroke: #7bf3ff; stroke-width: 4; marker-end: url(#arrowhead); filter: url(#glow); opacity: 0.94; }
  </style>
  <defs>
    <linearGradient id="bg2" x1="0" y1="0" x2="1" y2="1">
      <stop offset="0%" stop-color="#040812" />
      <stop offset="100%" stop-color="#0d1f36" />
    </linearGradient>
    <marker id="arrowhead" markerWidth="12" markerHeight="8" refX="10" refY="4" orient="auto">
      <polygon points="0 0, 12 4, 0 8" fill="#7bf3ff" />
    </marker>
    <filter id="glow" x="-40%" y="-40%" width="180%" height="180%">
      <feGaussianBlur stdDeviation="3" result="blur" />
      <feMerge>
        <feMergeNode in="blur" />
        <feMergeNode in="blur" />
        <feMergeNode in="SourceGraphic" />
      </feMerge>
    </filter>
  </defs>
  <rect width="960" height="360" fill="url(#bg2)" />

  <rect x="40" y="110" width="140" height="140" class="node" />
  <text x="110" y="155" class="label">UI</text>
  <text x="110" y="180" class="sub">Preset picker</text>
  <text x="110" y="200" class="sub">KPI tiles</text>
  <text x="110" y="220" class="sub">History table</text>

  <rect x="280" y="110" width="140" height="140" class="node" />
  <text x="350" y="155" class="label">API</text>
  <text x="350" y="180" class="sub">FastAPI</text>
  <text x="350" y="200" class="sub">Guardrails + auth</text>
  <text x="350" y="220" class="sub">Structured errors</text>

  <rect x="520" y="110" width="140" height="140" class="node" />
  <text x="590" y="155" class="label">Queue</text>
  <text x="590" y="180" class="sub">Redis</text>
  <text x="590" y="200" class="sub">Backpressure gauges</text>
  <text x="590" y="220" class="sub">Per-target metrics</text>

  <rect x="760" y="40" width="160" height="120" class="node" />
  <text x="840" y="80" class="label">Provider</text>
  <text x="840" y="105" class="sub">Simulator + IBM</text>
  <text x="840" y="125" class="sub">Braket / IonQ ready</text>

  <rect x="760" y="220" width="160" height="120" class="node" />
  <text x="840" y="260" class="label">Store</text>
  <text x="840" y="285" class="sub">SQLite/Redis</text>
  <text x="840" y="305" class="sub">KPIs + artifacts</text>

  <!-- Forward flow -->
  <path d="M185 178 C 225 168 255 148 280 148" class="arrow" />
  <path d="M425 176 C 470 164 500 146 520 144" class="arrow" />
  <path d="M660 154 C 715 142 750 118 760 106" class="arrow" />
  <path d="M840 166 C 840 188 840 202 840 216" class="arrow" />

  <!-- Down to store and back to UI -->
  <path d="M780 214 C 770 236 770 252 780 274" class="arrow" />
  <path d="M742 294 C 670 318 610 320 540 300" class="arrow" />
  <path d="M502 300 C 430 322 370 322 300 300" class="arrow" />
  <path d="M262 300 C 190 322 140 322 92 296" class="arrow" />
</svg>
